<?xml version="1.0" encoding="UTF-8" standalone="no"?><!DOCTYPE svg PUBLIC "-//W3C//DTD SVG 1.1//EN" "http://www.w3.org/Graphics/SVG/1.1/DTD/svg11.dtd"><svg width="100%" height="100%" viewBox="0 0 1433 1433" version="1.1" xmlns="http://www.w3.org/2000/svg" xmlns:xlink="http://www.w3.org/1999/xlink" xml:space="preserve" xmlns:serif="http://www.serif.com/" style="fill-rule:evenodd;clip-rule:evenodd;stroke-linejoin:round;stroke-miterlimit:2;"><g><path d="M3.464,787.127c-2.291,-23.301 -3.464,-46.927 -3.464,-70.826c0,-23.898 1.173,-47.525 3.464,-70.825l0,1.512l0,140.139Z" style="fill:#f4f3eb;"/><path d="M404.768,71.213c94.215,-45.625 199.909,-71.213 311.533,-71.213c17.608,0 35.068,0.637 52.359,1.888c-13.763,0.953 -17.338,2.33 -18.112,4.266c-4.167,11.667 83.333,225.834 134.166,326.667c89.167,178.75 179.584,285 304.167,357.5c59.167,34.583 154.167,63.333 213.333,64.583l29.323,0.752c-14.907,274.748 -184.944,508.518 -423.959,615.154c4.716,-9.994 9.594,-20.013 14.636,-30.072c46.667,-92.5 101.25,-175.417 169.584,-256.25c30,-35.834 33.333,-43.334 20.416,-43.334c-17.5,0 -80,-22.5 -131.666,-47.916c-93.334,-45.417 -161.25,-94.167 -259.167,-186.667l-17.5,-16.667l-2.083,14.167c-1.25,7.917 -3.334,23.333 -4.584,35c-3.75,27.5 -27.916,120 -42.916,164.583c-55.318,161.168 -142.607,294.01 -258.789,394.217c-112.236,-36.379 -212.371,-99.735 -292.744,-182.403c20.621,-10.948 40.091,-23.082 57.366,-35.98c86.667,-64.584 156.25,-166.25 195.417,-286.25c18.75,-57.084 34.166,-127.917 40,-185c7.083,-67.5 2.5,-211.667 -8.75,-285.834c-14.737,-97.107 -46.948,-234.99 -82.03,-351.191Z" style="fill:#f4f3eb;"/><path d="M768.66,1.888c370.932,26.85 663.942,336.684 663.942,714.413c0,13.205 -0.358,26.326 -1.065,39.355l-29.323,-0.752c-59.166,-1.25 -154.166,-30 -213.333,-64.583c-124.583,-72.5 -215,-178.75 -304.167,-357.5c-50.833,-100.833 -138.333,-315 -134.166,-326.667c0.774,-1.936 4.349,-3.313 18.112,-4.266Z" style="fill:#181818;"/><path d="M1007.58,1370.81c-89.01,39.712 -187.585,61.792 -291.277,61.792c-77.029,0 -151.234,-12.185 -220.792,-34.731c116.182,-100.207 203.471,-233.049 258.789,-394.217c15,-44.583 39.166,-137.083 42.916,-164.583c1.25,-11.667 3.334,-27.083 4.584,-35l2.083,-14.167l17.5,16.667c97.917,92.5 165.833,141.25 259.167,186.667c51.666,25.416 114.166,47.916 131.666,47.916c12.917,0 9.584,7.5 -20.416,43.334c-68.334,80.833 -122.917,163.75 -169.584,256.25c-5.042,10.059 -9.92,20.078 -14.636,30.072Z" style="fill:#181818;"/><path d="M3.464,645.476c24.911,-253.314 182.01,-468.066 401.304,-574.263c35.082,116.201 67.293,254.084 82.03,351.191c11.25,74.167 15.833,218.334 8.75,285.834c-5.834,57.083 -21.25,127.916 -40,185c-39.167,120 -108.75,221.666 -195.417,286.25c-17.275,12.898 -36.745,25.032 -57.366,35.98c-110.007,-113.149 -182.99,-262.479 -199.301,-428.341l0,-140.139l0,-1.512Z" style="fill:#181818;"/></g></svg>