<?xml version="1.0" encoding="UTF-8" standalone="no"?><!DOCTYPE svg PUBLIC "-//W3C//DTD SVG 1.1//EN" "http://www.w3.org/Graphics/SVG/1.1/DTD/svg11.dtd"><svg width="100%" height="100%" viewBox="0 0 698 177" version="1.1" xmlns="http://www.w3.org/2000/svg" xmlns:xlink="http://www.w3.org/1999/xlink" xml:space="preserve" xmlns:serif="http://www.serif.com/" style="fill-rule:evenodd;clip-rule:evenodd;stroke-linejoin:round;stroke-miterlimit:2;"><g><path d="M65.486,139.347c-12.755,0 -23.997,-2.842 -33.726,-8.525c-9.73,-5.683 -17.316,-13.623 -22.761,-23.818c-5.444,-10.196 -8.166,-21.986 -8.166,-35.371c-0,-13.644 2.814,-25.564 8.443,-35.759c5.629,-10.196 13.542,-18.114 23.737,-23.754c10.196,-5.64 22.039,-8.46 35.531,-8.46c10.955,0 20.63,1.86 29.026,5.58c8.395,3.72 15.256,9.051 20.581,15.992c5.324,6.942 8.714,15.283 10.168,25.025l-28.764,-0c-1.215,-7.072 -4.534,-12.55 -9.957,-16.434c-5.423,-3.883 -12.441,-5.825 -21.054,-5.825c-8.113,0 -15.184,1.785 -21.215,5.354c-6.031,3.569 -10.678,8.639 -13.942,15.212c-3.264,6.572 -4.896,14.349 -4.896,23.331c-0,9.045 1.675,16.908 5.027,23.589c3.351,6.682 8.069,11.85 14.154,15.506c6.085,3.655 13.205,5.483 21.36,5.483c6.162,0 11.673,-0.998 16.531,-2.994c4.859,-1.997 8.699,-4.714 11.519,-8.152c2.82,-3.437 4.23,-7.325 4.23,-11.664l-0,-5.01l-34.621,-0l-0,-21.346l41.324,-0c6.703,-0 11.762,1.621 15.179,4.864c3.417,3.243 5.125,8.064 5.125,14.463l-0,50.761l-25.413,-0l-0,-15.294l-0.814,0c-3.059,5.596 -7.717,9.87 -13.975,12.82c-6.258,2.951 -13.802,4.426 -22.631,4.426Z" style="fill:#fff;fill-rule:nonzero;"/><rect x="149.957" y="0.732" width="27.007" height="136.663" style="fill:#fff;fill-rule:nonzero;"/><path d="M202.215,176.441l-0,-21.671l21.509,-0l7.547,-18.156l-42.072,-96.836l28.535,0l27.399,65.795l0.684,-0l26.649,-65.795l27.658,0l-41.879,97.617l-7.939,18.806c-2.733,6.443 -5.89,11.428 -9.469,14.953c-3.579,3.525 -9.013,5.287 -16.3,5.287l-22.322,0Z" style="fill:#fff;fill-rule:nonzero;"/><path d="M348.118,139.347c-14.361,0 -25.673,-3.021 -33.938,-9.063c-8.264,-6.041 -12.733,-14.474 -13.406,-25.298l26.098,-0c0.845,4.729 3.068,8.222 6.669,10.478c3.6,2.256 8.839,3.384 15.716,3.384c11.128,-0 16.692,-3.103 16.692,-9.307c-0,-2.517 -0.841,-4.507 -2.522,-5.971c-1.681,-1.465 -4.474,-2.565 -8.379,-3.303l-21.702,-4.164c-19.501,-3.774 -29.252,-12.928 -29.252,-27.462c0,-9.394 3.742,-16.878 11.226,-22.453c7.484,-5.575 17.798,-8.362 30.943,-8.362c13.212,-0 23.652,2.863 31.32,8.59c7.667,5.726 11.87,13.774 12.607,24.144l-26.031,0c-1.105,-4.533 -3.187,-7.836 -6.246,-9.907c-3.059,-2.072 -7.474,-3.108 -13.244,-3.108c-4.923,-0 -8.709,0.732 -11.356,2.196c-2.647,1.465 -3.97,3.639 -3.97,6.523c-0,2.127 0.819,3.879 2.456,5.256c1.638,1.377 4.161,2.391 7.567,3.042l22.19,4.296c10.196,1.995 17.679,5.292 22.452,9.891c4.772,4.6 7.158,10.804 7.158,18.613c0,10.043 -3.698,17.885 -11.095,23.525c-7.396,5.64 -18.047,8.46 -31.953,8.46Z" style="fill:#fff;fill-rule:nonzero;"/><path d="M453.122,139.347c-10.587,0 -19.785,-2.088 -27.594,-6.264c-7.81,-4.176 -13.829,-10.092 -18.059,-17.75c-4.23,-7.658 -6.345,-16.682 -6.345,-27.072c-0,-10.39 2.071,-19.355 6.215,-26.893c4.144,-7.538 10.044,-13.346 17.702,-17.425c7.658,-4.078 16.671,-6.117 27.039,-6.117c10.173,-0 18.926,1.958 26.259,5.873c7.332,3.916 12.956,9.507 16.871,16.774c3.916,7.267 5.874,15.955 5.874,26.065l0,9.044l-73.993,0c1.041,7.267 3.779,12.81 8.215,16.628c4.436,3.818 10.32,5.727 17.654,5.727c5.66,0 10.177,-0.976 13.55,-2.928c3.374,-1.952 5.765,-4.979 7.175,-9.08l27.074,-0c-2.148,10.478 -7.414,18.668 -15.798,24.568c-8.385,5.9 -18.998,8.85 -31.839,8.85Zm-25.479,-61.727l47.573,-0c-0.934,-6.094 -3.353,-10.693 -7.258,-13.795c-3.905,-3.102 -9.165,-4.653 -15.781,-4.653c-6.529,-0 -11.891,1.573 -16.089,4.718c-4.198,3.145 -7.013,7.722 -8.445,13.73Z" style="fill:#fff;fill-rule:nonzero;"/><path d="M525.618,137.395l-0,-70.935l-13.341,0l-0,-26.682l27.332,0l0,19.198l6.834,0c2.559,-6.789 6.664,-11.881 12.315,-15.277c5.651,-3.395 12.035,-5.093 19.151,-5.093l8.231,0l0,23.428l-9.436,0c-8.46,0 -14.675,2.386 -18.645,7.159c-3.97,4.772 -5.955,11.063 -5.955,18.872l-0,49.33l-26.486,-0Z" style="fill:#fff;fill-rule:nonzero;"/><path d="M629.157,139.184c-11.541,0 -20.565,-2.782 -27.073,-8.345c-6.508,-5.564 -9.762,-12.946 -9.762,-22.145c0,-9.587 3.368,-16.994 10.104,-22.223c6.736,-5.228 16.383,-7.842 28.943,-7.842l27.983,0l0,-3.775c0,-10.455 -6.301,-15.682 -18.905,-15.682c-10.889,-0 -17.494,3.796 -19.816,11.388l-26.811,0c2.125,-10.715 7.152,-18.85 15.081,-24.404c7.928,-5.553 18.433,-8.33 31.513,-8.33c14.534,-0 25.63,3.259 33.287,9.778c7.658,6.519 11.487,16.004 11.487,28.455l-0,34.654l12.69,-0l-0,26.682l-27.333,-0l0,-15.944l-6.833,-0c-3.362,5.684 -7.852,10.06 -13.471,13.13c-5.618,3.069 -12.646,4.603 -21.084,4.603Zm4.035,-20.499c5.053,-0 9.549,-0.911 13.487,-2.733c3.937,-1.822 7.034,-4.3 9.29,-7.436c2.256,-3.135 3.383,-6.622 3.383,-10.46l0,-1.465l-26.715,0c-9.695,0 -14.543,3.601 -14.543,10.802c0,3.579 1.339,6.356 4.018,8.33c2.678,1.975 6.372,2.962 11.08,2.962Z" style="fill:#fff;fill-rule:nonzero;"/></g></svg>