<?xml version="1.0" encoding="UTF-8" standalone="no"?><!DOCTYPE svg PUBLIC "-//W3C//DTD SVG 1.1//EN" "http://www.w3.org/Graphics/SVG/1.1/DTD/svg11.dtd"><svg width="100%" height="100%" viewBox="0 0 1393 3019" version="1.1" xmlns="http://www.w3.org/2000/svg" xmlns:xlink="http://www.w3.org/1999/xlink" xml:space="preserve" xmlns:serif="http://www.serif.com/" style="fill-rule:evenodd;clip-rule:evenodd;stroke-linejoin:round;stroke-miterlimit:2;"><path id="Iphone-Screen" serif:id="Iphone Screen" d="M0,0l1392.52,0l-0,3018.9l-1392.52,-0l0,-3018.9Z" style="fill:none;"/><clipPath id="_clip1"><path d="M0,0l1392.52,0l-0,3018.9l-1392.52,-0l0,-3018.9Z"/></clipPath><g clip-path="url(#_clip1)"><path d="M0,3018.9l1392.52,-0l-0,-3018.9l-1392.52,0l0,3018.9Z" style="fill:#1f1f1f;"/><g><circle cx="1056.37" cy="1542.33" r="17.717" style="fill:#e7fe54;"/><g><path d="M383.091,1560.21c-12.755,0 -23.997,-2.841 -33.726,-8.525c-9.729,-5.683 -17.316,-13.622 -22.761,-23.818c-5.444,-10.195 -8.166,-21.985 -8.166,-35.37c-0,-13.645 2.814,-25.565 8.443,-35.76c5.629,-10.196 13.542,-18.113 23.737,-23.753c10.196,-5.641 22.039,-8.461 35.531,-8.461c10.955,0 20.63,1.86 29.026,5.58c8.395,3.72 15.256,9.051 20.581,15.993c5.324,6.941 8.714,15.283 10.168,25.024l-28.764,0c-1.215,-7.072 -4.534,-12.55 -9.957,-16.433c-5.423,-3.884 -12.441,-5.826 -21.054,-5.826c-8.113,0 -15.184,1.785 -21.215,5.354c-6.031,3.569 -10.678,8.64 -13.942,15.212c-3.264,6.572 -4.896,14.349 -4.896,23.331c-0,9.045 1.675,16.908 5.027,23.59c3.351,6.681 8.069,11.85 14.154,15.505c6.085,3.656 13.205,5.484 21.36,5.484c6.162,-0 11.673,-0.999 16.531,-2.995c4.859,-1.996 8.699,-4.713 11.519,-8.151c2.82,-3.438 4.23,-7.326 4.23,-11.665l-0,-5.01l-34.621,-0l-0,-21.346l41.324,-0c6.703,-0 11.763,1.621 15.179,4.864c3.417,3.243 5.125,8.064 5.125,14.463l-0,50.761l-25.413,0l-0,-15.293l-0.814,-0c-3.059,5.596 -7.717,9.869 -13.975,12.82c-6.258,2.95 -13.801,4.425 -22.631,4.425Z" style="fill:#fff;fill-rule:nonzero;"/><rect x="467.562" y="1421.59" width="27.007" height="136.663" style="fill:#fff;fill-rule:nonzero;"/><path d="M519.82,1597.3l0,-21.672l21.509,0l7.547,-18.155l-42.071,-96.836l28.535,-0l27.398,65.794l0.684,0l26.649,-65.794l27.658,-0l-41.879,97.616l-7.939,18.807c-2.733,6.443 -5.89,11.427 -9.469,14.952c-3.579,3.525 -9.012,5.288 -16.3,5.288l-22.322,-0Z" style="fill:#fff;fill-rule:nonzero;"/><path d="M665.724,1560.21c-14.362,0 -25.674,-3.02 -33.939,-9.062c-8.264,-6.042 -12.733,-14.475 -13.405,-25.299l26.097,-0c0.845,4.73 3.068,8.223 6.669,10.478c3.6,2.256 8.839,3.384 15.716,3.384c11.128,-0 16.692,-3.102 16.692,-9.307c-0,-2.516 -0.841,-4.507 -2.522,-5.971c-1.681,-1.464 -4.474,-2.565 -8.379,-3.302l-21.702,-4.164c-19.501,-3.774 -29.251,-12.928 -29.251,-27.462c-0,-9.394 3.741,-16.879 11.225,-22.454c7.484,-5.574 17.798,-8.362 30.943,-8.362c13.212,0 23.652,2.863 31.32,8.59c7.668,5.726 11.87,13.775 12.607,24.145l-26.031,-0c-1.105,-4.534 -3.187,-7.836 -6.246,-9.908c-3.059,-2.072 -7.474,-3.108 -13.244,-3.108c-4.923,0 -8.708,0.732 -11.356,2.197c-2.647,1.464 -3.97,3.638 -3.97,6.523c-0,2.127 0.819,3.878 2.457,5.255c1.638,1.377 4.16,2.391 7.566,3.042l22.19,4.296c10.196,1.995 17.68,5.292 22.452,9.892c4.772,4.599 7.158,10.803 7.158,18.613c0,10.043 -3.698,17.884 -11.095,23.524c-7.396,5.64 -18.047,8.46 -31.952,8.46Z" style="fill:#fff;fill-rule:nonzero;"/><path d="M770.727,1560.21c-10.587,0 -19.785,-2.087 -27.594,-6.263c-7.809,-4.176 -13.829,-10.093 -18.059,-17.751c-4.23,-7.657 -6.345,-16.681 -6.345,-27.072c-0,-10.39 2.072,-19.354 6.215,-26.892c4.144,-7.539 10.044,-13.347 17.702,-17.425c7.658,-4.079 16.671,-6.118 27.039,-6.118c10.174,0 18.926,1.958 26.259,5.874c7.332,3.915 12.956,9.507 16.872,16.774c3.915,7.267 5.873,15.955 5.873,26.064l0,9.045l-73.993,-0c1.041,7.267 3.779,12.809 8.215,16.628c4.436,3.818 10.321,5.727 17.654,5.727c5.66,-0 10.177,-0.976 13.55,-2.929c3.374,-1.952 5.765,-4.979 7.175,-9.08l27.074,0c-2.148,10.479 -7.413,18.668 -15.798,24.568c-8.385,5.9 -18.998,8.85 -31.839,8.85Zm-25.479,-61.727l47.573,0c-0.934,-6.094 -3.353,-10.692 -7.258,-13.794c-3.905,-3.103 -9.165,-4.654 -15.781,-4.654c-6.528,0 -11.891,1.573 -16.089,4.718c-4.198,3.146 -7.013,7.722 -8.445,13.73Z" style="fill:#fff;fill-rule:nonzero;"/><path d="M843.223,1558.26l-0,-70.935l-13.341,0l-0,-26.681l27.333,-0l-0,19.197l6.833,0c2.559,-6.789 6.664,-11.881 12.315,-15.276c5.651,-3.396 12.035,-5.093 19.151,-5.093l8.231,-0l0,23.428l-9.436,-0c-8.46,-0 -14.675,2.386 -18.645,7.158c-3.97,4.773 -5.955,11.063 -5.955,18.873l-0,49.329l-26.486,0Z" style="fill:#fff;fill-rule:nonzero;"/><path d="M946.762,1560.05c-11.541,-0 -20.565,-2.782 -27.073,-8.346c-6.508,-5.564 -9.762,-12.945 -9.762,-22.144c0,-9.587 3.368,-16.995 10.104,-22.223c6.736,-5.228 16.383,-7.843 28.943,-7.843l27.983,0l0,-3.775c0,-10.454 -6.301,-15.682 -18.905,-15.682c-10.889,0 -17.494,3.796 -19.816,11.389l-26.811,-0c2.125,-10.716 7.152,-18.851 15.081,-24.404c7.929,-5.554 18.433,-8.331 31.513,-8.331c14.534,0 25.63,3.26 33.287,9.778c7.658,6.519 11.487,16.004 11.487,28.455l-0,34.654l12.69,0l-0,26.682l-27.333,0l0,-15.944l-6.833,0c-3.362,5.684 -7.852,10.061 -13.47,13.13c-5.618,3.069 -12.647,4.604 -21.085,4.604Zm4.035,-20.5c5.053,0 9.549,-0.911 13.487,-2.733c3.938,-1.821 7.034,-4.3 9.29,-7.435c2.256,-3.135 3.383,-6.622 3.383,-10.461l0,-1.464l-26.714,-0c-9.696,-0 -14.544,3.6 -14.544,10.801c0,3.58 1.339,6.356 4.018,8.331c2.679,1.974 6.372,2.961 11.08,2.961Z" style="fill:#fff;fill-rule:nonzero;"/></g></g></g></svg>