<?xml version="1.0" encoding="UTF-8" standalone="no"?><!DOCTYPE svg PUBLIC "-//W3C//DTD SVG 1.1//EN" "http://www.w3.org/Graphics/SVG/1.1/DTD/svg11.dtd"><svg width="100%" height="100%" viewBox="0 0 1433 1433" version="1.1" xmlns="http://www.w3.org/2000/svg" xmlns:xlink="http://www.w3.org/1999/xlink" xml:space="preserve" xmlns:serif="http://www.serif.com/" style="fill-rule:evenodd;clip-rule:evenodd;stroke-linejoin:round;stroke-miterlimit:2;"><g><g><path d="M100.705,350.068c49.636,-83.196 115.656,-155.505 193.592,-212.46c13.952,2.855 28.073,6.213 42.37,10.074c47.5,12.917 47.083,12.083 25.833,40.417c-64.583,86.25 -141.667,140.833 -222.917,157.5c-14.67,2.934 -26.936,4.494 -38.878,4.469Z" style="fill:#d8d0fe;"/><path d="M775.079,2.382c243.076,19.78 451.989,161.144 565.765,363.116c-72.404,-7.867 -205.095,-10.164 -272.927,-3.649l-38.334,3.333l-10.833,-21.667c-15.417,-30.416 -66.667,-114.166 -86.25,-140.833c-30.833,-42.083 -77.5,-95 -120,-135.833l-42.5,-41.25l5.079,-23.217Z" style="fill:#d8d0fe;"/><path d="M1429.54,649.632c2.03,21.952 3.067,44.191 3.067,66.669c0,395.338 -320.963,716.301 -716.301,716.301c-395.337,0 -716.301,-320.963 -716.301,-716.301c0,-22.572 1.046,-44.902 3.093,-66.944c0.819,3.816 1.852,5.633 3.157,6.658c10.833,8.75 153.75,7.917 195.833,-1.666c127.084,-27.917 232.084,-86.25 327.5,-181.25c28.75,-29.167 65.417,-70 81.25,-91.667l28.75,-38.75l15.834,17.917c22.5,25.833 69.583,96.25 69.583,103.75c-0.417,3.333 -15,15 -32.5,25.833c-127.5,76.667 -242.083,204.583 -296.25,330.833c-21.667,50.834 -29.583,83.75 -32.5,135c-2.917,53.334 6.25,96.667 31.667,147.917c63.333,127.5 229.166,213.75 393.75,205c184.166,-10 307.5,-118.333 348.333,-304.167c13.75,-64.166 12.917,-187.916 -2.5,-291.25c-3.333,-22.5 -5.833,-42.083 -5.833,-43.333c-0,-4.167 129.583,2.5 181.25,9.167c25,2.916 62.083,8.75 82.083,12.5l36.667,7.083c-0,-0 0.165,-19.782 0.368,-49.3Z" style="fill:#d8d0fe;"/><path d="M831.25,821.015c-2.083,-27.916 -4.583,-40 -8.333,-40c-7.5,0 -89.584,81.667 -105,104.167c-17.5,25.833 -38.75,69.167 -38.75,78.75c-0,15 74.166,36.667 105.416,30.833c21.667,-4.166 28.334,-9.166 37.5,-29.583c10,-23.333 13.75,-82.083 9.167,-144.167Z" style="fill:#d8d0fe;"/><path d="M3.093,649.357c10.084,-108.591 44.451,-210.184 97.612,-299.289c11.942,0.025 24.208,-1.535 38.878,-4.469c81.25,-16.667 158.334,-71.25 222.917,-157.5c21.25,-28.334 21.667,-27.5 -25.833,-40.417c-14.297,-3.861 -28.418,-7.219 -42.37,-10.074c118.39,-86.519 264.278,-137.608 422.004,-137.608c19.789,0 39.392,0.804 58.778,2.382l-5.079,23.217l42.5,41.25c42.5,40.833 89.167,93.75 120,135.833c19.583,26.667 70.833,110.417 86.25,140.833l10.833,21.667l38.334,-3.333c67.832,-6.515 200.523,-4.218 272.927,3.649c48.114,85.41 79.214,181.658 88.691,284.134c-0.203,29.518 -0.368,49.3 -0.368,49.3l-36.667,-7.083c-20,-3.75 -57.083,-9.584 -82.083,-12.5c-51.667,-6.667 -181.25,-13.334 -181.25,-9.167c-0,1.25 2.5,20.833 5.833,43.333c15.417,103.334 16.25,227.084 2.5,291.25c-40.833,185.834 -164.167,294.167 -348.333,304.167c-164.584,8.75 -330.417,-77.5 -393.75,-205c-25.417,-51.25 -34.584,-94.583 -31.667,-147.917c2.917,-51.25 10.833,-84.166 32.5,-135c54.167,-126.25 168.75,-254.166 296.25,-330.833c17.5,-10.833 32.083,-22.5 32.5,-25.833c-0,-7.5 -47.083,-77.917 -69.583,-103.75l-15.834,-17.917l-28.75,38.75c-15.833,21.667 -52.5,62.5 -81.25,91.667c-95.416,95 -200.416,153.333 -327.5,181.25c-42.083,9.583 -185,10.416 -195.833,1.666c-1.305,-1.025 -2.338,-2.842 -3.157,-6.658Zm828.157,171.658c-2.083,-27.916 -4.583,-40 -8.333,-40c-7.5,0 -89.584,81.667 -105,104.167c-17.5,25.833 -38.75,69.167 -38.75,78.75c-0,15 74.166,36.667 105.416,30.833c21.667,-4.166 28.334,-9.166 37.5,-29.583c10,-23.333 13.75,-82.083 9.167,-144.167Z" style="fill:#7154b8;"/></g></g></svg>