<?xml version="1.0" encoding="UTF-8" standalone="no"?><!DOCTYPE svg PUBLIC "-//W3C//DTD SVG 1.1//EN" "http://www.w3.org/Graphics/SVG/1.1/DTD/svg11.dtd"><svg width="100%" height="100%" viewBox="0 0 1433 1433" version="1.1" xmlns="http://www.w3.org/2000/svg" xmlns:xlink="http://www.w3.org/1999/xlink" xml:space="preserve" xmlns:serif="http://www.serif.com/" style="fill-rule:evenodd;clip-rule:evenodd;stroke-linejoin:round;stroke-miterlimit:2;"><g><path d="M1.501,763.003c-0.995,-15.44 -1.501,-31.012 -1.501,-46.702c0,-376.923 291.761,-686.24 661.569,-714.237l113.139,0.288c75.838,6.132 148.355,24.098 215.699,52.048c-23.363,174.789 -84.275,328.673 -184.721,466.017c-48.333,66.25 -35,60.416 -144.583,62.916c-164.583,3.75 -286.25,31.667 -505.417,115.834c-48.333,18.75 -102.083,40.416 -118.75,47.916c-17.083,7.917 -31.666,14.167 -32.5,14.167c-0.416,0 -1.666,-4.167 -2.5,-9.583c-0.187,-1.123 -0.332,2.942 -0.435,11.336Z" style="fill:#3d011d;"/><path d="M1041.47,1354.61c-97.604,49.863 -208.125,77.994 -325.165,77.994c-204.203,0 -388.563,-85.633 -519.097,-222.918c209.516,-23.411 463.487,-129.436 626.816,-265.101c13.75,-11.666 27.083,-20.833 29.583,-20.833c7.5,0 72.917,32.083 92.5,45.417c55.833,38.333 98.75,92.916 117.5,148.333c21.25,62.083 13.75,154.167 -17.917,227.083l-4.22,10.025Z" style="fill:#3d011d;"/><path d="M712.841,0.008c1.153,-0.005 2.306,-0.008 3.46,-0.008c1.296,0 2.592,0.003 3.886,0.01l-7.346,-0.002Z" style="fill:#3d011d;"/><path d="M1269.89,261.924c101.653,123.672 162.709,281.95 162.709,454.377c0,110.229 -24.952,214.676 -69.512,307.996c-0.908,-2.887 -1.847,-5.844 -2.82,-8.88c-32.084,-100 -95.417,-192.084 -181.667,-263.75c-34.167,-28.334 -87.083,-65.417 -92.917,-65.417c-7.5,0 -3.333,-12.917 10.417,-32.083c58.75,-83.334 128.75,-234.167 162.083,-349.167c4.064,-13.941 7.974,-28.341 11.707,-43.076Z" style="fill:#3d011d;"/><path d="M661.569,2.064c16.934,-1.282 34.031,-1.974 51.272,-2.056l7.346,0.002c18.344,0.098 36.526,0.887 54.521,2.342l-113.139,-0.288Z" style="fill:#f53024;"/><path d="M990.407,54.4c109.484,45.439 205.297,117.265 279.486,207.524c-3.733,14.735 -7.643,29.135 -11.707,43.076c-33.333,115 -103.333,265.833 -162.083,349.167c-13.75,19.166 -17.917,32.083 -10.417,32.083c5.834,0 58.75,37.083 92.917,65.417c86.25,71.666 149.583,163.75 181.667,263.75c0.973,3.036 1.912,5.993 2.82,8.88c-67.941,142.287 -181.465,258.707 -321.624,330.311l4.22,-10.025c31.667,-72.916 39.167,-165 17.917,-227.083c-18.75,-55.417 -61.667,-110 -117.5,-148.333c-19.583,-13.334 -85,-45.417 -92.5,-45.417c-2.5,0 -15.833,9.167 -29.583,20.833c-163.329,135.665 -417.3,241.69 -626.816,265.101c-112.151,-117.951 -184.569,-274.028 -195.703,-446.681c0.103,-8.394 0.248,-12.459 0.435,-11.336c0.834,5.416 2.084,9.583 2.5,9.583c0.834,0 15.417,-6.25 32.5,-14.167c16.667,-7.5 70.417,-29.166 118.75,-47.916c219.167,-84.167 340.834,-112.084 505.417,-115.834c109.583,-2.5 96.25,3.334 144.583,-62.916c100.446,-137.344 161.358,-291.228 184.721,-466.017Z" style="fill:#f53024;"/></g></svg>