<?xml version="1.0" encoding="UTF-8" standalone="no"?><!DOCTYPE svg PUBLIC "-//W3C//DTD SVG 1.1//EN" "http://www.w3.org/Graphics/SVG/1.1/DTD/svg11.dtd"><svg width="100%" height="100%" viewBox="0 0 1433 1433" version="1.1" xmlns="http://www.w3.org/2000/svg" xmlns:xlink="http://www.w3.org/1999/xlink" xml:space="preserve" xmlns:serif="http://www.serif.com/" style="fill-rule:evenodd;clip-rule:evenodd;stroke-linejoin:round;stroke-miterlimit:2;"><g><path d="M1330.79,348.218c64.634,107.599 101.812,233.534 101.812,368.083c0,371.684 -283.705,677.628 -646.191,712.907l-15.421,-0.564l-2.084,-13.333c-1.25,-7.5 -3.75,-47.5 -5.416,-89.584c-2.5,-65 -1.667,-75.833 3.333,-75.833c3.333,-0 19.583,4.583 36.25,10.417c145.833,49.583 275.417,32.083 380,-51.25c67.5,-53.75 106.25,-128.334 111.25,-214.167c5,-97.5 -28.75,-189.167 -96.25,-260.417c-30.417,-32.083 -81.25,-68.75 -117.083,-84.166c-31.667,-13.75 -84.167,-26.25 -121.25,-28.334c-82.5,-5.416 -201.25,32.5 -280.417,89.167c-16.667,12.083 -32.083,22.083 -33.75,22.083c-5.833,0 -38.75,-54.166 -36.25,-60.416c1.667,-4.584 8.333,-6.25 22.5,-6.25c44.167,-0 192.917,-34.584 294.583,-68.334c79.584,-26.666 171.25,-72.5 250,-124.583c54.276,-36.111 108.898,-80.959 154.384,-125.426Z" style="fill:#003238;"/><path d="M769.51,1430.65c-17.569,1.293 -35.313,1.95 -53.209,1.95c-16.117,0 -32.111,-0.533 -47.964,-1.583c42.373,-0.082 77.089,-0.205 101.173,-0.367Z" style="fill:#003238;"/><path d="M1.411,761.589c-0.936,-14.977 -1.411,-30.077 -1.411,-45.288c-0,-15.344 0.483,-30.575 1.436,-45.68c-0.013,28.296 -0.02,58.572 -0.025,90.968Z" style="fill:#003238;"/><path d="M959.74,943.227c-16.667,-6.666 -23.334,-7.083 -45.834,0c-25.833,7.5 -23.75,17.084 4.584,22.917c26.25,5 57.083,6.25 61.25,2.083c5,-5.416 -6.25,-19.166 -20,-25Z" style="fill:#003238;"/><path d="M460.66,47.037c79.413,-30.387 165.598,-47.037 255.641,-47.037c147.03,0 283.773,44.395 397.544,120.499c-103.448,106.983 -256.133,186.42 -435.355,220.645c-72.917,14.167 -161.667,24.167 -192.084,21.667c-5,-0.417 -7.916,-7.5 -11.25,-24.584c-12.5,-65.833 -15.416,-108.333 -15.416,-211.25c0.148,-36.439 0.297,-61.039 0.92,-79.94Z" style="fill:#003238;"/><path d="M3.342,646.734c1.541,-15.965 3.608,-31.777 6.182,-47.42l30.632,9.747c37.084,12.083 133.75,36.666 176.667,45l23.75,4.583l24.583,50.833c47.084,97.917 107.5,190.834 176.667,272.917c31.25,36.667 37.083,45.417 35,54.583c-20.833,94.584 -28.333,177.917 -26.667,295l0.641,49.729c-244.796,-97.872 -423.148,-326.992 -447.86,-600.163l0.405,-134.809Z" style="fill:#003238;"/><path d="M9.524,599.314c41.751,-253.714 217.015,-462.692 451.136,-552.277c-0.623,18.901 -0.772,43.501 -0.92,79.94c-0,102.917 2.916,145.417 15.416,211.25c3.334,17.084 6.25,24.167 11.25,24.584c30.417,2.5 119.167,-7.5 192.084,-21.667c179.222,-34.225 331.907,-113.662 435.355,-220.645c88.025,58.883 162.298,136.747 216.945,227.719c-45.486,44.467 -100.108,89.315 -154.384,125.426c-78.75,52.083 -170.416,97.917 -250,124.583c-101.666,33.75 -250.416,68.334 -294.583,68.334c-14.167,-0 -20.833,1.666 -22.5,6.25c-2.5,6.25 30.417,60.416 36.25,60.416c1.667,0 17.083,-10 33.75,-22.083c79.167,-56.667 197.917,-94.583 280.417,-89.167c37.083,2.084 89.583,14.584 121.25,28.334c35.833,15.416 86.666,52.083 117.083,84.166c67.5,71.25 101.25,162.917 96.25,260.417c-5,85.833 -43.75,160.417 -111.25,214.167c-104.583,83.333 -234.167,100.833 -380,51.25c-16.667,-5.834 -32.917,-10.417 -36.25,-10.417c-5,-0 -5.833,10.833 -3.333,75.833c1.666,42.084 4.166,82.084 5.416,89.584l2.084,13.333l15.421,0.564c-5.615,0.547 -11.249,1.028 -16.901,1.444c-24.084,0.162 -58.8,0.285 -101.173,0.367c-76.395,-5.061 -149.532,-22.122 -217.54,-49.313l-0.641,-49.729c-1.666,-117.083 5.834,-200.416 26.667,-295c2.083,-9.166 -3.75,-17.916 -35,-54.583c-69.167,-82.083 -129.583,-175 -176.667,-272.917l-24.583,-50.833l-23.75,-4.583c-42.917,-8.334 -139.583,-32.917 -176.667,-45l-30.632,-9.747Zm950.216,343.913c-16.667,-6.666 -23.334,-7.083 -45.834,0c-25.833,7.5 -23.75,17.084 4.584,22.917c26.25,5 57.083,6.25 61.25,2.083c5,-5.416 -6.25,-19.166 -20,-25Z" style="fill:#c3c099;"/><path d="M1.436,670.621c0.504,-7.999 1.14,-15.961 1.906,-23.887l-0.405,134.809c-0.599,-6.626 -1.108,-13.278 -1.526,-19.954c0.005,-32.396 0.012,-62.672 0.025,-90.968Z" style="fill:#c3c099;"/></g></svg>