<?xml version="1.0" encoding="UTF-8" standalone="no"?><!DOCTYPE svg PUBLIC "-//W3C//DTD SVG 1.1//EN" "http://www.w3.org/Graphics/SVG/1.1/DTD/svg11.dtd"><svg width="100%" height="100%" viewBox="0 0 1433 1433" version="1.1" xmlns="http://www.w3.org/2000/svg" xmlns:xlink="http://www.w3.org/1999/xlink" xml:space="preserve" xmlns:serif="http://www.serif.com/" style="fill-rule:evenodd;clip-rule:evenodd;stroke-linejoin:round;stroke-miterlimit:2;"><g><path d="M132.176,301.831c104.802,-147.366 263.947,-253.447 448.098,-288.908c30.688,7.385 59.299,15.375 71.393,19.982c2.457,0.819 24.632,-13.653 49.124,-32.74c5.157,-0.11 10.327,-0.165 15.51,-0.165c150.138,0 289.549,46.291 404.728,125.368c-30.976,10.986 -61.806,24.036 -92.696,39.204l-59.583,29.167l12.5,10.416c70.833,59.584 134.167,128.75 178.75,194.584c52.5,78.333 92.5,175 111.667,270.833c8.333,39.583 9.583,59.167 9.583,135.833c0,100.834 -6.667,145.834 -33.333,227.5c-57.938,176.711 -196.439,323.005 -357.94,378.461c-55.614,13.872 -113.792,21.236 -173.676,21.236c-35.824,0 -71.037,-2.635 -105.457,-7.723c5.775,-3.54 2.254,-5.71 -20.011,-15.307c-100,-42.083 -175,-114.167 -228.333,-220.833c-19.167,-37.917 -44.167,-116.667 -54.583,-171.667c-12.5,-66.25 -15.834,-220.833 -6.25,-295c17.916,-135.417 48.333,-236.667 109.166,-362.083c15,-30.417 26.667,-55.834 25.834,-56.667c-0.834,-0.417 -25.417,-2.917 -55.417,-5.833c-59.583,-5 -150,-5.417 -208.333,-0c-9.214,0.752 -23.943,2.353 -40.741,4.342Zm591.574,141.908c-79.583,143.75 -112.083,260.416 -112.917,405.416c0,79.167 6.25,121.667 26.667,177.5c27.083,74.167 65,102.5 121.667,91.667c44.166,-8.75 76.25,-27.083 115.833,-67.083c28.75,-28.334 39.167,-42.5 52.917,-70.834c69.583,-142.916 47.5,-313.75 -57.084,-442.916c-24.166,-30 -121.666,-119.584 -129.583,-119.584c-1.667,0 -9.583,11.667 -17.5,25.834Z" style="fill:#97e0cd;"/><path d="M610.844,1424.88c-345.414,-51.057 -610.844,-349.065 -610.844,-708.578c0,-154.397 48.955,-297.449 132.176,-414.47c16.798,-1.989 31.527,-3.59 40.741,-4.342c58.333,-5.417 148.75,-5 208.333,-0c30,2.916 54.583,5.416 55.417,5.833c0.833,0.833 -10.834,26.25 -25.834,56.667c-60.833,125.416 -91.25,226.666 -109.166,362.083c-9.584,74.167 -6.25,228.75 6.25,295c10.416,55 35.416,133.75 54.583,171.667c53.333,106.666 128.333,178.75 228.333,220.833c22.265,9.597 25.786,11.767 20.011,15.307Z" style="fill:#1a5941;"/><path d="M1121.03,125.368c188.104,129.145 311.573,345.734 311.573,590.933c0,335.453 -231.091,617.358 -542.625,695.065c161.501,-55.456 300.002,-201.75 357.94,-378.461c26.666,-81.666 33.333,-126.666 33.333,-227.5c-0,-76.666 -1.25,-96.25 -9.583,-135.833c-19.167,-95.833 -59.167,-192.5 -111.667,-270.833c-44.583,-65.834 -107.917,-135 -178.75,-194.584l-12.5,-10.416l59.583,-29.167c30.89,-15.168 61.72,-28.218 92.696,-39.204Z" style="fill:#1a5941;"/><path d="M580.274,12.923c39.137,-7.536 79.403,-11.883 120.517,-12.758c-24.492,19.087 -46.667,33.559 -49.124,32.74c-12.094,-4.607 -40.705,-12.597 -71.393,-19.982Z" style="fill:#1a5941;"/><path d="M723.75,443.739c-79.583,143.75 -112.083,260.416 -112.917,405.416c0,79.167 6.25,121.667 26.667,177.5c27.083,74.167 65,102.5 121.667,91.667c44.166,-8.75 76.25,-27.083 115.833,-67.083c28.75,-28.334 39.167,-42.5 52.917,-70.834c69.583,-142.916 47.5,-313.75 -57.084,-442.916c-24.166,-30 -121.666,-119.584 -129.583,-119.584c-1.667,0 -9.583,11.667 -17.5,25.834Z" style="fill:#1a5941;"/></g></svg>