<?xml version="1.0" encoding="UTF-8" standalone="no"?><!DOCTYPE svg PUBLIC "-//W3C//DTD SVG 1.1//EN" "http://www.w3.org/Graphics/SVG/1.1/DTD/svg11.dtd"><svg width="100%" height="100%" viewBox="0 0 1435 1437" version="1.1" xmlns="http://www.w3.org/2000/svg" xmlns:xlink="http://www.w3.org/1999/xlink" xml:space="preserve" xmlns:serif="http://www.serif.com/" style="fill-rule:evenodd;clip-rule:evenodd;stroke-linecap:round;stroke-linejoin:round;stroke-miterlimit:1.5;"><g><path d="M1355.67,395.299c49.203,97.094 76.936,206.876 76.936,323.085c0,22.792 -1.066,45.336 -3.153,67.586l-1.268,-0.515c-6.634,-42.457 -59.705,-170.713 -97.74,-237.052l-22.113,-38.477l47.338,-114.627Z" style="fill:#f6f6f6;stroke:#f6f6f6;stroke-width:4.17px;"/><path d="M997.91,1377.12c-86.458,37.048 -181.657,57.565 -281.609,57.565c-217.627,-0 -412.716,-97.263 -544.133,-250.653c19.873,6.532 40.583,12.422 61.905,18.033c57.494,15.48 176.021,19.018 253.859,7.961c136.216,-18.575 260.934,-65.897 378.576,-142.851c68.993,-45.11 111.008,-79.607 174.694,-144.619c31.842,-32.285 58.82,-57.937 60.147,-57.052c7.519,3.98 15.037,77.396 15.037,145.504c0,84.03 -5.307,118.969 -30.958,195.48c-21.015,63.193 -50.435,120.324 -87.518,170.632Z" style="fill:#f6f6f6;stroke:#f6f6f6;stroke-width:4.17px;"/><path d="M508.276,420.589c-152.138,21.229 -264.915,100.836 -302.507,213.613c-12.826,38.034 -17.249,83.145 -11.499,110.565c11.056,54.399 44.668,101.278 86.241,120.738c44.668,20.786 129.583,21.671 210.074,2.653c116.758,-27.862 214.94,-83.587 302.95,-171.155c41.572,-41.573 112.777,-129.14 112.777,-138.428c-0,-11.941 -65.455,-57.936 -122.507,-86.683c-83.587,-41.573 -194.153,-62.359 -275.529,-51.303Z" style="fill:#f6f6f6;stroke:#f6f6f6;stroke-width:4.17px;"/><path d="M325.802,117.931c112.352,-73.259 246.491,-115.848 390.499,-115.848c127.296,0 246.881,33.278 350.523,91.601c-7.82,66.114 -19.598,136.733 -24.738,136.733c-2.211,-0 -20.344,-9.73 -40.246,-21.671c-124.718,-74.743 -241.033,-112.777 -383.883,-124.718c-97.933,-7.948 -197.5,3.87 -292.155,33.903Z" style="fill:#f6f6f6;stroke:#f6f6f6;stroke-width:4.17px;"/><path d="M172.168,1184.03c-107.313,-125.256 -172.168,-287.938 -172.168,-465.649c0,-251.329 129.72,-472.599 325.802,-600.453c94.655,-30.033 194.222,-41.851 292.155,-33.903c142.85,11.941 259.165,49.975 383.883,124.718c19.902,11.941 38.035,21.671 40.246,21.671c5.14,-0 16.918,-70.619 24.738,-136.733c123.619,69.564 224.556,174.759 288.842,301.615l-47.338,114.627l22.113,38.477c38.035,66.339 91.106,194.595 97.74,237.052l1.268,0.515c-24.952,266.116 -195.745,490.112 -431.539,591.151c37.083,-50.308 66.503,-107.439 87.518,-170.632c25.651,-76.511 30.958,-111.45 30.958,-195.48c0,-68.108 -7.518,-141.524 -15.037,-145.504c-1.327,-0.885 -28.305,24.767 -60.147,57.052c-63.686,65.012 -105.701,99.509 -174.694,144.619c-117.642,76.954 -242.36,124.276 -378.576,142.851c-77.838,11.057 -196.365,7.519 -253.859,-7.961c-21.322,-5.611 -42.032,-11.501 -61.905,-18.033Zm336.108,-763.444c-152.138,21.229 -264.915,100.836 -302.507,213.613c-12.826,38.034 -17.249,83.145 -11.499,110.565c11.056,54.399 44.668,101.278 86.241,120.738c44.668,20.786 129.583,21.671 210.074,2.653c116.758,-27.862 214.94,-83.587 302.95,-171.155c41.572,-41.573 112.777,-129.14 112.777,-138.428c-0,-11.941 -65.455,-57.936 -122.507,-86.683c-83.587,-41.573 -194.153,-62.359 -275.529,-51.303Z" style="fill:#ff7664;"/></g></svg>