<?xml version="1.0" encoding="UTF-8" standalone="no"?><!DOCTYPE svg PUBLIC "-//W3C//DTD SVG 1.1//EN" "http://www.w3.org/Graphics/SVG/1.1/DTD/svg11.dtd"><svg width="100%" height="100%" viewBox="0 0 1433 1433" version="1.1" xmlns="http://www.w3.org/2000/svg" xmlns:xlink="http://www.w3.org/1999/xlink" xml:space="preserve" xmlns:serif="http://www.serif.com/" style="fill-rule:evenodd;clip-rule:evenodd;stroke-linejoin:round;stroke-miterlimit:2;"><g><path d="M1066.4,91.364c218.464,122.743 366.198,356.724 366.198,624.937c0,395.338 -320.963,716.301 -716.301,716.301c-9.188,0 -18.336,-0.173 -27.44,-0.517l2.389,-11.149c11.667,-49.167 35.417,-129.584 46.667,-158.75c14.583,-36.667 49.583,-98.75 57.5,-101.667c2.5,-0.833 24.166,2.083 48.333,6.25c60.417,10.833 149.167,11.667 193.75,1.667c126.667,-28.75 218.75,-106.25 241.667,-203.334c17.916,-76.25 -2.5,-145 -60.417,-203.75c-36.667,-37.083 -74.583,-57.5 -125.833,-67.916c-82.917,-17.084 -190.417,3.333 -294.584,55.833l-42.5,21.25l-20.416,-22.083c-11.667,-12.084 -20.834,-23.75 -20.834,-25.834c0,-2.083 30.417,-35 67.917,-72.916c89.167,-90.834 137.083,-152.5 183.333,-236.25c43.334,-78.334 73.334,-155.417 91.25,-236.25c4.79,-21.556 7.928,-52.656 9.321,-85.822Z" style="fill:#440122;"/><path d="M389.913,1353.98c-155.692,-79.917 -278.376,-215.187 -341.997,-379.753c52.329,-0.588 134.821,-7.375 175.834,-14.542c49.583,-8.75 133.333,-32.5 176.667,-50c20.416,-8.334 40,-16.25 43.75,-17.084c4.583,-1.666 13.333,7.084 29.166,28.334c12.5,16.666 30.417,39.166 40.417,50l17.917,19.166l-25.834,43.334c-14.166,23.75 -33.333,58.75 -42.5,78.333c-29.103,62.268 -59.306,163.841 -73.42,242.212Z" style="fill:#440122;"/><path d="M0.034,723.397c-0.022,-2.362 -0.034,-4.728 -0.034,-7.096c0,-2.223 0.01,-4.444 0.03,-6.663l0.004,13.759Z" style="fill:#440122;"/><path d="M569.723,15.038c47.322,-9.857 96.35,-15.038 146.578,-15.038c11.889,0 23.71,0.29 35.458,0.864c9.376,43.032 8.317,91.424 -5.509,137.572c-22.917,77.083 -46.667,122.083 -106.667,202.083c-36.25,48.75 -44.166,57.5 -48.75,53.333c-7.5,-7.5 -24.583,-133.333 -28.333,-209.166c-2.919,-55.463 0.153,-116.198 7.223,-169.648Z" style="fill:#440122;"/><path d="M2.082,661.327c14.92,-196.194 109.021,-370.403 250.384,-490.707c1.22,72.705 5.274,144.901 11.701,186.982c10,65.417 32.5,169.167 45.833,212.5c5,15 8.75,28.75 8.75,30.417c0,6.25 -52.917,27.5 -100.417,40c-56.25,15 -105.416,21.25 -169.166,21.25l-47.084,-0l-0.001,-0.442Z" style="fill:#440122;"/><path d="M0.03,709.638c0.149,-16.238 0.838,-32.347 2.052,-48.311l0.001,0.442l47.084,-0c63.75,-0 112.916,-6.25 169.166,-21.25c47.5,-12.5 100.417,-33.75 100.417,-40c0,-1.667 -3.75,-15.417 -8.75,-30.417c-13.333,-43.333 -35.833,-147.083 -45.833,-212.5c-6.427,-42.081 -10.481,-114.277 -11.701,-186.982c89.506,-76.173 197.96,-130.735 317.257,-155.582c-7.07,53.45 -10.142,114.185 -7.223,169.648c3.75,75.833 20.833,201.666 28.333,209.166c4.584,4.167 12.5,-4.583 48.75,-53.333c60,-80 83.75,-125 106.667,-202.083c13.826,-46.148 14.885,-94.54 5.509,-137.572c113.866,5.562 220.784,37.764 314.645,90.5c-1.393,33.166 -4.531,64.266 -9.321,85.822c-17.916,80.833 -47.916,157.916 -91.25,236.25c-46.25,83.75 -94.166,145.416 -183.333,236.25c-37.5,37.916 -67.917,70.833 -67.917,72.916c0,2.084 9.167,13.75 20.834,25.834l20.416,22.083l42.5,-21.25c104.167,-52.5 211.667,-72.917 294.584,-55.833c51.25,10.416 89.166,30.833 125.833,67.916c57.917,58.75 78.333,127.5 60.417,203.75c-22.917,97.084 -115,174.584 -241.667,203.334c-44.583,10 -133.333,9.166 -193.75,-1.667c-24.167,-4.167 -45.833,-7.083 -48.333,-6.25c-7.917,2.917 -42.917,65 -57.5,101.667c-11.25,29.166 -35,109.583 -46.667,158.75l-2.389,11.149c-107.357,-4.052 -208.698,-31.778 -298.948,-78.104c14.114,-78.371 44.317,-179.944 73.42,-242.212c9.167,-19.583 28.334,-54.583 42.5,-78.333l25.834,-43.334l-17.917,-19.166c-10,-10.834 -27.917,-33.334 -40.417,-50c-15.833,-21.25 -24.583,-30 -29.166,-28.334c-3.75,0.834 -23.334,8.75 -43.75,17.084c-43.334,17.5 -127.084,41.25 -176.667,50c-41.013,7.167 -123.505,13.954 -175.834,14.542c-30.138,-77.959 -47.022,-162.493 -47.882,-250.831l-0.004,-13.759Z" style="fill:#c269f4;"/></g></svg>