<?xml version="1.0" encoding="UTF-8" standalone="no"?><!DOCTYPE svg PUBLIC "-//W3C//DTD SVG 1.1//EN" "http://www.w3.org/Graphics/SVG/1.1/DTD/svg11.dtd"><svg width="100%" height="100%" viewBox="0 0 1433 1433" version="1.1" xmlns="http://www.w3.org/2000/svg" xmlns:xlink="http://www.w3.org/1999/xlink" xml:space="preserve" xmlns:serif="http://www.serif.com/" style="fill-rule:evenodd;clip-rule:evenodd;stroke-linejoin:round;stroke-miterlimit:2;"><g><path d="M1.935,769.298c-1.283,-17.499 -1.935,-35.172 -1.935,-52.997c0,-18.602 0.711,-37.04 2.106,-55.287c-0.064,27.807 -0.122,64.295 -0.171,108.284Z" style="fill:#216449;"/><path d="M2.854,651.985c5.861,-65.741 20.621,-128.939 43.063,-188.379c47.94,21.254 97.217,24.563 142.523,9.337c80.833,-27.083 142.5,-77.917 282.083,-231.667c112.668,-124.125 194.436,-197.346 274.422,-240.713c198.283,7.814 375.962,96.39 501.021,233.712c15.242,112.649 -22.024,231.721 -117.526,375.751c-60.834,91.667 -110.417,147.084 -305.834,341.667c-101.25,100.833 -195.416,196.25 -209.166,212.5c-25.834,30 -73.334,92.917 -80.834,106.667c-7.916,15 9.584,8.333 75.417,-27.5c196.25,-108.334 261.25,-130.417 366.667,-125.834c79.166,3.75 135.416,21.667 197.916,63.334c18.769,12.573 35.626,26.422 50.43,41.51c-129.685,129.854 -308.897,210.232 -506.735,210.232c-195.432,0 -372.69,-78.435 -501.982,-205.517c16.487,-54.106 43.59,-110.693 79.121,-162.892c53.75,-79.583 96.666,-126.667 287.5,-316.667c105.833,-105.416 208.333,-211.25 227.916,-235.416c65.834,-80.834 107.5,-151.667 121.667,-207.084c12.5,-47.083 7.917,-52.083 -28.75,-30.833c-55.417,31.667 -106.25,78.333 -208.75,190.417c-154.167,168.75 -245.833,242.916 -362.083,291.666c-97.084,41.25 -180.834,50.834 -294.584,34.584l-32.5,-4.584l-1.002,-134.291Z" style="fill:#216449;"/><path d="M1245.97,234.275c115.925,127.29 186.636,296.466 186.636,482.026c0,197.5 -80.103,376.438 -209.566,506.069c-14.804,-15.088 -31.661,-28.937 -50.43,-41.51c-62.5,-41.667 -118.75,-59.584 -197.916,-63.334c-105.417,-4.583 -170.417,17.5 -366.667,125.834c-65.833,35.833 -83.333,42.5 -75.417,27.5c7.5,-13.75 55,-76.667 80.834,-106.667c13.75,-16.25 107.916,-111.667 209.166,-212.5c195.417,-194.583 245,-250 305.834,-341.667c95.502,-144.03 132.768,-263.102 117.526,-375.751Z" style="fill:#20362d;"/><path d="M45.917,463.606c102.247,-270.802 363.978,-463.606 670.384,-463.606c9.593,0 19.142,0.189 28.644,0.563c-79.986,43.367 -161.754,116.588 -274.422,240.713c-139.583,153.75 -201.25,204.584 -282.083,231.667c-45.306,15.226 -94.583,11.917 -142.523,-9.337Z" style="fill:#20362d;"/><path d="M2.106,661.014c0.231,-3.015 0.48,-6.025 0.748,-9.029l1.002,134.291l32.5,4.584c113.75,16.25 197.5,6.666 294.584,-34.584c116.25,-48.75 207.916,-122.916 362.083,-291.666c102.5,-112.084 153.333,-158.75 208.75,-190.417c36.667,-21.25 41.25,-16.25 28.75,30.833c-14.167,55.417 -55.833,126.25 -121.667,207.084c-19.583,24.166 -122.083,130 -227.916,235.416c-190.834,190 -233.75,237.084 -287.5,316.667c-35.531,52.199 -62.634,108.786 -79.121,162.892c-120.46,-118.4 -199.285,-279.026 -212.384,-457.787c0.049,-43.989 0.107,-80.477 0.171,-108.284Z" style="fill:#20362d;"/></g></svg>