<?xml version="1.0" encoding="UTF-8" standalone="no"?><!DOCTYPE svg PUBLIC "-//W3C//DTD SVG 1.1//EN" "http://www.w3.org/Graphics/SVG/1.1/DTD/svg11.dtd"><svg width="100%" height="100%" viewBox="0 0 1433 1433" version="1.1" xmlns="http://www.w3.org/2000/svg" xmlns:xlink="http://www.w3.org/1999/xlink" xml:space="preserve" xmlns:serif="http://www.serif.com/" style="fill-rule:evenodd;clip-rule:evenodd;stroke-linejoin:round;stroke-miterlimit:2;"><g><path d="M4.022,640.018c18.98,-178.958 103.975,-338.333 230.142,-453.281c-5.501,15.093 -10.189,30.889 -14.184,47.596c-11.25,47.083 -9.583,131.667 4.167,180.833c41.25,151.25 152.5,263.75 312.5,316.25c92.917,30.417 172.5,35 315,18.75c104.583,-11.666 142.083,-11.666 165,0.417c10.417,5 12.083,8.333 12.083,23.75c0,43.333 -49.583,84.167 -125.833,103.333c-44.583,11.25 -172.5,15.417 -253.333,8.334c-127.5,-11.25 -250.417,-36.25 -339.584,-69.167c-88.75,-32.917 -208.75,-100.417 -276.25,-155c-10.833,-8.75 -22.916,-18.333 -26.666,-21.667c-1.206,-0.904 -2.208,-1.25 -3.042,-0.148Z" style="fill:#e0faf9;"/><path d="M1338.58,361.503c59.825,104.623 94.025,225.748 94.025,354.798c0,395.338 -320.963,716.301 -716.301,716.301c-268.304,0 -502.353,-147.834 -625.062,-366.421c167.425,80.076 386.967,129.538 618.741,138.569c242.917,9.166 412.917,-45 527.084,-167.917c89.166,-96.25 125.416,-226.667 95.833,-345c-16.25,-64.583 -39.167,-107.083 -82.917,-153.333c-28.75,-30.417 -52.5,-47.917 -90,-66.667c-88.333,-43.75 -180.416,-53.75 -330.416,-35.833c-156.25,18.75 -240,-0.417 -282.917,-64.584c-27.917,-41.25 -28.333,-70.833 -1.25,-100c35.833,-39.166 79.583,-52.916 166.667,-52.916c154.489,-0 419.321,60.878 626.513,143.003Z" style="fill:#e0faf9;"/><path d="M0.001,717.607c-0.001,-0.435 -0.001,-0.871 -0.001,-1.306c0,-5.328 0.058,-10.643 0.174,-15.944c-0.064,5.3 -0.122,11.038 -0.173,17.25Z" style="fill:#e0faf9;"/><path d="M0.174,700.357c0.445,-20.332 1.739,-40.456 3.848,-60.339c0.834,-1.102 1.836,-0.756 3.042,0.148c3.75,3.334 15.833,12.917 26.666,21.667c67.5,54.583 187.5,122.083 276.25,155c89.167,32.917 212.084,57.917 339.584,69.167c80.833,7.083 208.75,2.916 253.333,-8.334c76.25,-19.166 125.833,-60 125.833,-103.333c0,-15.417 -1.666,-18.75 -12.083,-23.75c-22.917,-12.083 -60.417,-12.083 -165,-0.417c-142.5,16.25 -222.083,11.667 -315,-18.75c-160,-52.5 -271.25,-165 -312.5,-316.25c-13.75,-49.166 -15.417,-133.75 -4.167,-180.833c3.995,-16.707 8.683,-32.503 14.184,-47.596c127.303,-115.984 296.523,-186.737 482.137,-186.737c266.288,-0 498.832,145.62 622.276,361.503c-207.192,-82.125 -472.024,-143.003 -626.513,-143.003c-87.084,-0 -130.834,13.75 -166.667,52.916c-27.083,29.167 -26.667,58.75 1.25,100c42.917,64.167 126.667,83.334 282.917,64.584c150,-17.917 242.083,-7.917 330.416,35.833c37.5,18.75 61.25,36.25 90,66.667c43.75,46.25 66.667,88.75 82.917,153.333c29.583,118.333 -6.667,248.75 -95.833,345c-114.167,122.917 -284.167,177.083 -527.084,167.917c-231.774,-9.031 -451.316,-58.493 -618.741,-138.569c-57.9,-103.139 -91.012,-222.029 -91.238,-348.574c0.051,-6.212 0.109,-11.95 0.173,-17.25Z" style="fill:#122f29;"/></g></svg>